<svg xmlns="http://www.w3.org/2000/svg" viewBox="0 0 64 64">
  <defs>
    <linearGradient id="openclaw-favicon-gradient" x1="8" y1="8" x2="56" y2="56" gradientUnits="userSpaceOnUse">
      <stop offset="0" stop-color="#7f1d1d"/>
      <stop offset="1" stop-color="#0f172a"/>
    </linearGradient>
  </defs>
  <rect x="6" y="6" width="52" height="52" rx="16" fill="url(#openclaw-favicon-gradient)"/>
  <path d="M20 32c0-8.4 5-13 12-13 4.6 0 8.4 1.7 10.9 4.9l-4.3 4.1c-1.6-1.9-3.7-2.9-6.3-2.9-4.2 0-7.2 2.9-7.2 6.9s3 6.9 7.2 6.9c2.6 0 4.7-1 6.3-2.9l4.3 4.1c-2.5 3.2-6.3 4.9-10.9 4.9-7 0-12-4.6-12-13z" fill="#f8fafc"/>
  <circle cx="25" cy="22" r="2.2" fill="#fda4af"/>
  <circle cx="39" cy="22" r="2.2" fill="#fda4af"/>
</svg>
